<?xml version="1.0" encoding="UTF-8"?>
<svg width="38px" height="38px" viewBox="0 0 38 38" version="1.1" xmlns="http://www.w3.org/2000/svg" xmlns:xlink="http://www.w3.org/1999/xlink">
    <!-- Generator: Sketch 53.2 (72643) - https://sketchapp.com -->
    <title>Group 47</title>
    <desc>Created with Sketch.</desc>
    <g id="Symbols" stroke="none" stroke-width="1" fill="none" fill-rule="evenodd" stroke-linecap="round" stroke-linejoin="round">
        <g id="shopTop-Desk" transform="translate(-744.000000, -700.000000)" stroke="#414141">
            <g id="teamBlock">
                <g transform="translate(723.000000, 675.000000)">
                    <g id="Group-47" transform="translate(21.000000, 25.000000)">
                        <path d="M14.0972,19.1846 C12.9832,19.2526 11.7732,19.1546 10.9882,19.0656 C10.3252,18.9906 9.4432,18.7696 9.1792,19.5996 C9.0542,19.9936 9.0732,20.4156 9.0942,20.8236 C9.0992,20.9186 9.1072,21.0156 9.1402,21.1056 C9.1982,21.2616 9.3542,21.3726 9.5042,21.4316 C9.5042,21.4316 12.7542,22.8316 12.7712,22.8386 C12.9582,22.9196 13.1782,22.9716 13.3652,22.8596 C13.5632,22.7406 13.6732,22.5306 13.7922,22.3416 C13.9152,22.1456 14.0652,21.9896 14.2492,21.8476 C15.2062,21.1116 16.6292,21.1386 17.7432,21.4386 C18.1262,21.5416 18.5362,21.7126 18.8262,21.9936 C19.0992,22.2566 19.2232,22.6576 19.5582,22.8596 C19.7442,22.9716 19.9652,22.9196 20.1532,22.8386 C20.1692,22.8316 23.4192,21.4316 23.4192,21.4316 C23.5692,21.3726 23.7262,21.2616 23.7832,21.1056 C23.8162,21.0156 23.8242,20.9186 23.8282,20.8236 C23.8512,20.4196 23.8682,19.9906 23.7432,19.5996 C23.4802,18.7696 22.5992,18.9906 21.9362,19.0656 C21.1502,19.1546 19.7662,19.2146 18.7922,19.2516" id="Stroke-1" stroke-width="1.25"></path>
                        <path d="M12.3784,21.9731 C12.4454,20.9761 12.9684,18.8061 16.2264,18.6691 L16.5524,18.6691 C19.8634,18.8121 20.3424,21.0591 20.3954,22.0281" id="Stroke-3" stroke-width="1.25"></path>
                        <path d="M14.6167,18.9824 C14.7717,17.5334 14.0327,16.2314 12.9437,15.3254 C11.7267,14.3144 10.3487,13.9464 8.8297,13.6674 C8.7107,13.6454 8.5897,13.6184 8.4877,13.5534 C8.2897,13.4254 8.2807,13.1704 8.2757,12.9594 C8.2677,12.6154 8.1937,11.9944 8.6277,11.8794 C8.7757,11.8404 8.9337,11.8644 9.0867,11.8874 C9.9567,12.0234 10.8927,12.2774 11.7757,12.1124 C12.5597,11.9654 13.0507,11.2124 13.2707,10.4984 C13.5207,9.6874 13.3527,7.7344 14.5367,7.7344 L18.2227,7.7344 C19.4067,7.7344 19.2387,9.6874 19.4887,10.4984 C19.7097,11.2124 20.1997,11.9654 20.9837,12.1124 C21.8667,12.2774 22.8037,12.0234 23.6737,11.8874 C23.8257,11.8644 23.9837,11.8404 24.1327,11.8794 C24.5657,11.9944 24.4917,12.6154 24.4837,12.9594 C24.4787,13.1704 24.4707,13.4254 24.2717,13.5534 C24.1707,13.6184 24.0497,13.6454 23.9297,13.6674 C22.4107,13.9464 21.0327,14.3144 19.8157,15.3254 C18.7267,16.2314 17.9877,17.5334 18.1427,18.9824" id="Stroke-5" stroke-width="1.25"></path>
                        <path d="M18.1656,21.5723 L18.1656,23.0743 C18.1656,23.2493 18.0216,23.3933 17.8476,23.3933 L15.2076,23.3933 C15.0326,23.3933 14.8896,23.2493 14.8896,23.0743 L14.8896,21.5053" id="Stroke-7" stroke-width="1.25"></path>
                        <path d="M16.5757,23.3931 L16.5757,33.9271 C16.5757,33.9271 9.7527,34.4721 9.0787,34.5441" id="Stroke-9" stroke-width="1.25"></path>
                        <path d="M9.6763,35.1421 C9.6763,35.4721 9.4083,35.7401 9.0783,35.7401 C8.7483,35.7401 8.4813,35.4721 8.4813,35.1421 C8.4813,34.8121 8.7483,34.5441 9.0783,34.5441 C9.4083,34.5441 9.6763,34.8121 9.6763,35.1421 Z" id="Stroke-11" stroke-width="1.25"></path>
                        <path d="M12.3228,32.7256 C12.3228,33.0556 12.0548,33.3236 11.7248,33.3236 C11.3948,33.3236 11.1278,33.0556 11.1278,32.7256 C11.1278,32.3956 11.3948,32.1276 11.7248,32.1276 C12.0548,32.1276 12.3228,32.3956 12.3228,32.7256 Z" id="Stroke-13" stroke-width="1.25"></path>
                        <path d="M16.5757,33.9272 C16.5757,33.9272 22.7627,34.4722 23.4357,34.5442" id="Stroke-15" stroke-width="1.25"></path>
                        <path d="M22.8384,35.1421 C22.8384,35.4721 23.1064,35.7401 23.4364,35.7401 C23.7664,35.7401 24.0334,35.4721 24.0334,35.1421 C24.0334,34.8121 23.7664,34.5441 23.4364,34.5441 C23.1064,34.5441 22.8384,34.8121 22.8384,35.1421 Z" id="Stroke-17" stroke-width="1.25"></path>
                        <path d="M16.5757,33.9272 L11.9577,32.1752" id="Stroke-19" stroke-width="1.25"></path>
                        <path d="M20.7554,32.7256 C20.7554,33.0556 21.0234,33.3236 21.3534,33.3236 C21.6834,33.3236 21.9504,33.0556 21.9504,32.7256 C21.9504,32.3956 21.6834,32.1276 21.3534,32.1276 C21.0234,32.1276 20.7554,32.3956 20.7554,32.7256 Z" id="Stroke-21" stroke-width="1.25"></path>
                        <path d="M21.1206,32.1748 L16.5026,33.9268" id="Stroke-23" stroke-width="1.25"></path>
                        <path d="M16.5757,35.7397 L16.5757,33.0517" id="Stroke-25" stroke-width="1.25"></path>
                        <path d="M16.5718,37.1147 L16.5718,37.1147 C16.1938,37.1147 15.8848,36.8047 15.8848,36.4277 C15.8848,36.0497 16.1938,35.7397 16.5718,35.7397 C16.9498,35.7397 17.2588,36.0497 17.2588,36.4277 C17.2588,36.8047 16.9498,37.1147 16.5718,37.1147 Z" id="Stroke-27" stroke-width="1.151"></path>
                        <path d="M0.5757,14.0083 L10.3257,14.0083" id="Stroke-29" stroke-width="1.151"></path>
                        <path d="M22.3257,14.0083 L36.6587,14.0083" id="Stroke-31" stroke-width="1.151"></path>
                        <path d="M33.4087,32.7778 L33.4087,14.0078" id="Stroke-33" stroke-width="1.151"></path>
                        <path d="M4.2007,32.7778 L4.2007,14.0078" id="Stroke-35" stroke-width="1.151"></path>
                        <path d="M28.6558,13.1382 L31.5758,4.1382" id="Stroke-37" stroke-width="1.151"></path>
                        <path d="M24.357,0.5757 L32.576,5.3877" id="Stroke-39" stroke-width="1.151"></path>
                        <path d="M27.1587,13.1382 L31.3677,13.1382" id="Stroke-41" stroke-width="1.151"></path>
                        <path d="M4.2007,15.9873 L13.3887,15.9873" id="Stroke-43" stroke-width="1.151"></path>
                        <path d="M19.2007,15.9873 L33.4087,15.9873" id="Stroke-45" stroke-width="1.151"></path>
                    </g>
                </g>
            </g>
        </g>
    </g>
</svg>